<svg width="22" height="21" viewBox="0 0 22 21" fill="none" xmlns="http://www.w3.org/2000/svg">
<path d="M19.6429 21H2.35714C1.05531 21 0 19.9927 0 18.75V2.25C0 1.00734 1.05531 0 2.35714 0H19.6429C20.9447 0 22 1.00734 22 2.25V18.75C22 19.9927 20.9447 21 19.6429 21ZM9.59131 16.4035L18.627 7.77848C18.9338 7.48561 18.9338 7.01072 18.627 6.71784L17.5159 5.6572C17.2091 5.36433 16.7116 5.36428 16.4047 5.6572L9.03571 12.6912L5.59532 9.40716C5.2885 9.11428 4.79099 9.11428 4.48412 9.40716L3.37297 10.4678C3.06615 10.7607 3.06615 11.2356 3.37297 11.5284L8.48012 16.4034C8.78699 16.6964 9.28444 16.6964 9.59131 16.4035V16.4035Z" fill="#FDFF9D"/>
</svg>
