<svg width="66" height="67" viewBox="0 0 66 67" fill="none" xmlns="http://www.w3.org/2000/svg">
<path d="M47.6441 0.91813C42.1194 0.930594 36.4638 3.76665 32.6572 9.83422C27.8383 2.83458 20.0189 0.116518 13.2163 1.5065C5.84278 3.013 -0.301877 9.49228 0.0114793 19.7535C0.305463 29.3693 5.84075 36.1269 12.3737 42.5853C18.907 49.044 26.4998 55.3472 31.6072 64.1938L32.7038 66.0949L33.8003 64.1942C38.8874 55.3825 46.7253 49.3765 53.3936 43.0512C60.0617 36.7258 65.609 29.8827 65.3026 19.6775C65.0135 10.04 58.9943 3.32066 51.789 1.44703C50.438 1.09574 49.0453 0.914608 47.6442 0.917859L47.6441 0.91813ZM47.636 3.42877C48.8219 3.4369 50.0016 3.59582 51.1497 3.89441C57.2728 5.48666 62.5161 11.1214 62.7753 19.7536C63.0535 29.0233 58.1772 35.0255 51.6534 41.2139C45.558 46.9957 38.0685 52.7695 32.7078 61.1289C27.3882 52.7497 20.1514 46.7129 14.1563 40.7863C7.73972 34.4429 2.80879 28.3659 2.54326 19.6774C2.26093 10.4244 7.4334 5.27288 13.7245 3.98748C20.0156 2.70222 27.4534 5.43978 31.599 12.9078L32.7505 14.9907L33.8343 12.8698C37.2314 6.20062 42.496 3.39247 47.636 3.42864V3.42877ZM45.9547 6.2609C45.7284 6.25779 45.5125 6.26537 45.3071 6.28204C44.4853 6.34842 43.8525 6.5645 43.44 6.84508C43.0275 7.12551 42.8062 7.439 42.6949 7.92888C42.4721 8.90878 42.9842 10.5589 44.3461 12.2682C45.7076 13.9779 47.824 15.702 50.2985 16.934C52.7729 18.1657 55.1239 18.6501 56.7674 18.5172C57.5892 18.4508 58.2177 18.2347 58.6302 17.9541C59.0428 17.6737 59.2683 17.3602 59.3794 16.8703C59.6023 15.8905 59.086 14.2448 57.7243 12.5351C56.3625 10.8254 54.2504 9.10143 51.776 7.86968C49.6111 6.7917 47.5396 6.28217 45.955 6.26077L45.9547 6.2609ZM17.5047 6.26497C17.3265 6.26266 17.1572 6.26903 16.9967 6.28204C16.355 6.33352 15.8776 6.49799 15.5827 6.697C15.2879 6.89588 15.1481 7.09449 15.0706 7.43358C14.9151 8.11178 15.286 9.3858 16.3702 10.7358C17.454 12.0857 19.1543 13.4632 21.1414 14.4445C23.1285 15.4257 25.0106 15.8047 26.2936 15.7017C26.9355 15.6505 27.413 15.4817 27.7079 15.2827C28.0026 15.0838 28.1424 14.8852 28.2201 14.5461C28.3754 13.8679 28.0044 12.5939 26.9203 11.2439C25.8365 9.89397 24.1363 8.52078 22.1491 7.53939C20.4104 6.68101 18.7519 6.28217 17.505 6.26524L17.5047 6.26497ZM32.9914 23.8769C25.612 23.8769 18.9279 24.4808 14.1686 25.4348C11.7891 25.9121 9.88539 26.4861 8.68182 27.0565C8.0803 27.3417 7.65965 27.634 7.45413 27.8355C7.35523 27.9323 7.3154 27.9892 7.29752 28.0176C7.31513 28.0467 7.35496 28.1067 7.454 28.2038C7.65951 28.4052 8.0799 28.6933 8.68182 28.9785C9.88525 29.5491 11.789 30.123 14.1686 30.6001C18.9279 31.5543 25.6117 32.1622 32.9912 32.1622C40.3706 32.1622 47.0548 31.5543 51.814 30.6001C54.1935 30.123 56.0972 29.5491 57.3008 28.9785C57.9023 28.6934 58.323 28.4054 58.5285 28.2038C58.6274 28.1068 58.6672 28.0467 58.6851 28.0176C58.6675 27.9894 58.6275 27.9325 58.5286 27.8356C58.3231 27.6342 57.9027 27.3418 57.3008 27.0566C56.0974 26.4863 54.1937 25.9123 51.814 25.435C47.0548 24.481 40.3709 23.877 32.9914 23.877V23.8769ZM58.6854 28.018C58.7049 28.0484 58.6983 28.0455 58.6983 28.018C58.6983 27.9903 58.7048 27.9865 58.6855 28.018H58.6854ZM7.29793 28.018C7.27855 27.9865 7.28506 27.9903 7.28506 28.018C7.28506 28.0455 7.27828 28.0484 7.29779 28.018H7.29793ZM56.6914 31.9468C55.4451 32.3749 53.9817 32.7501 52.3097 33.0856C47.3069 34.0885 40.5081 34.6944 32.9915 34.6944C25.4749 34.6944 18.6717 34.0884 13.6692 33.0854C12.113 32.7734 10.7344 32.427 9.54561 32.0355C15.4791 39.8051 25.7285 46.4231 32.6698 57.0901C36.5953 51.1427 41.7087 46.615 46.4585 42.408C50.4142 38.9048 54.0868 35.6079 56.6914 31.9465V31.9468Z" fill="#7182BE" fill-opacity="0.3"/>
</svg>
