<svg width="64" height="70" viewBox="0 0 64 70" fill="none" xmlns="http://www.w3.org/2000/svg">
<path d="M45.1573 35.6478L56.3588 21.9964L64 27.3705L52.7985 41.0285L45.1573 35.6478ZM42.8646 34.0749L54.7756 19.5503L46.7529 13.9138L34.8418 28.4384L42.8646 34.0749ZM37.9653 17.9361L34.5245 24.4672L44.6866 12.0884L37.1078 6.75721L30.6468 14.6318L37.9653 17.9361ZM34.2678 5.84777L25.9526 0L18.4648 9.12899L28.0332 13.4484L34.2678 5.84777ZM53.344 44.7207L28.5627 27.7682L26.7941 27.9184L27.6071 28.2485L38.6892 51.0966L35.7439 51.468L25.4606 30.2589L18.3293 27.3375L17.6161 22.2473L24.6423 25.4526L31.1246 24.903L34.1554 19.1542L14.3839 10.2266L0 28.7965L18.0226 53.9652L13.9756 78H47.154V58.2483L53.4456 50.1723L55.3551 42.2631L53.344 44.7207Z" fill="#7182BE" fill-opacity="0.3"/>
</svg>
