<svg width="65" height="66" viewBox="0 0 65 66" fill="none" xmlns="http://www.w3.org/2000/svg">
<path d="M61.4438 0.00014031L47.1599 4.1855L52.95 0.241466C49.2926 1.07284 44.6806 2.69852 38.884 5.32151L29.4286 15.2581L32.7811 8.31807C29.5426 10.1372 26.1012 12.5283 22.7768 15.3155L20.5785 24.3441L20.1082 17.667C16.8275 20.6921 13.7524 24.0687 11.2099 27.6081C8.52818 31.341 6.43437 35.26 5.38496 39.1813L1.46733 36.5401C2.32241 39.2935 3.12399 42.0477 4.65833 44.8011C4.66279 45.0072 4.67226 45.2144 4.68438 45.4197L0 43.9679C1.56401 46.5348 3.28447 49.0069 5.99026 50.8645C6.05295 51.0053 6.12302 51.1414 6.19058 51.2811C4.54145 55.9602 3.32529 60.6876 2.49473 65.5571L5.0587 66C5.74856 61.9557 6.70756 58.0201 7.97095 54.1285C7.97652 54.1359 7.98265 54.1432 7.98836 54.1505C14.1565 32.2347 27.8834 16.6888 47.974 8.66511L48.9319 11.1042C30.9545 18.284 18.3812 31.4814 11.9065 50.2809C14.4289 50.2952 16.8932 49.9877 19.1809 49.4077L19.8601 40.8487L21.684 48.6402C23.1941 48.0896 24.5928 47.4101 25.8371 46.622L22.9551 40.5193L27.5219 45.4066C28.6286 44.4986 29.5576 43.4864 30.2557 42.3841C34.4778 35.7147 38.92 29.0855 47.6344 23.5458L41.2652 21.2646L51.0387 21.5627C51.3234 21.4104 51.608 21.2567 51.901 21.1065C53.1669 20.4565 54.3968 19.6771 55.5662 18.8076L48.6405 18.2505L59.0493 15.7761C59.8556 14.9605 60.606 14.1145 61.2829 13.2534C63.7046 10.1733 65.3275 6.96628 64.9439 4.0496C64.7522 2.59098 63.8913 1.22024 62.4887 0.452046C62.1637 0.273755 61.8156 0.123962 61.4439 0L61.4438 0.00014031ZM10.67 54.1895C10.5461 54.6191 10.4224 55.049 10.3044 55.4839L10.67 54.1895Z" fill="#7182BE" fill-opacity="0.3"/>
</svg>
