<svg width="82" height="70" viewBox="0 0 82 70" fill="none" xmlns="http://www.w3.org/2000/svg">
<path d="M38.6507 -1.03088C38.2564 -1.02951 37.8638 -1.02542 37.4717 -1.01483C37.1636 -1.0063 36.8554 -0.996739 36.5489 -0.982742C35.0443 -0.715247 34.3495 -0.056497 33.9722 0.697506C33.5566 1.52884 33.5728 2.64747 34.0363 3.64217C34.5001 4.63737 35.3507 5.45095 36.5383 5.75481C37.726 6.05866 39.361 5.90162 41.5101 4.52795L43.2279 7.21656C40.5276 8.94238 37.9148 9.39765 35.7488 8.84337C33.5829 8.28909 31.9757 6.77392 31.1452 4.99176C30.3627 3.3127 30.219 1.34277 30.9694 -0.406613C23.6432 0.778079 17.0096 3.58754 11.9143 7.54175C10.2397 9.36624 10.0758 11.4867 10.8098 12.935C11.6343 14.5611 13.5769 15.7482 17.4622 14.5191L18.4277 17.5599C13.5489 19.1031 9.52764 17.4595 7.96689 14.3805C7.58622 13.6299 7.35372 12.8176 7.26239 11.9799C6.44062 12.955 5.69873 13.97 5.04323 15.026L5.06474 15.0362C3.59429 18.3848 3.56083 20.7041 4.14703 22.2113C4.73357 23.7186 5.96247 24.6762 7.85474 25.2041C11.6389 26.259 17.7667 24.9861 22.0818 21.7633C23.9288 20.384 25.6797 17.0387 25.8322 14.4444C25.9081 13.147 25.6333 12.1221 25.0905 11.4676C24.5476 10.8131 23.6784 10.3234 21.879 10.342L21.8471 7.1522C24.3201 7.12659 26.3281 7.96373 27.5443 9.43008C28.7604 10.8964 29.1251 12.7848 29.0167 14.6311C28.7999 18.324 26.8666 22.1715 23.9915 24.3186C18.8915 28.1277 12.1555 29.7139 7.00121 28.2769C4.61339 27.6112 2.49973 26.1626 1.41063 23.9188C-0.21892 31.6767 2.14859 38.8828 6.65434 43.8698C7.24327 44.5219 7.8701 45.1381 8.52697 45.71C8.05685 44.3636 7.84142 42.9616 7.89195 41.5972C7.98242 39.1518 8.93018 36.7584 10.8315 35.1053C12.3907 33.7489 14.5447 32.9664 17.1208 32.9715C17.2925 32.9715 17.468 32.9746 17.6435 32.9817C18.0446 32.9988 18.4565 33.0336 18.876 33.0886L18.4594 36.2521C15.7985 35.9025 14.0715 36.5119 12.9225 37.511C11.7736 38.5103 11.1398 40.0057 11.0766 41.7146C10.9503 45.1328 13.137 49.1243 17.8519 50.282L17.8464 50.3141C22.4882 51.2 27.6681 50.3776 32.8685 47.2038C32.8715 47.2018 32.8758 47.2009 32.879 47.1987C33.9613 46.4391 34.5443 45.6951 34.8316 45.0541C35.1704 44.2976 35.1632 43.6387 34.922 42.9309C34.44 41.5158 32.7131 40.061 31.1293 39.6556C28.5684 39.0001 26.9416 39.9007 26.1789 40.9734C25.4162 42.0455 25.3697 43.0987 26.5469 44.0137L24.5889 46.5316C22.1671 44.6482 22.0127 41.3273 23.5809 39.1221C24.7574 37.4684 26.8218 36.3352 29.3105 36.2628C29.4141 36.2598 29.5201 36.2567 29.6252 36.2577C30.3603 36.2628 31.1257 36.3639 31.919 36.5667C34.5658 37.2444 37.0128 39.1746 37.9415 41.9012C38.1832 42.6105 38.2982 43.3847 38.2617 44.174C41.1142 42.7165 44.1223 41.4222 47.1865 40.4502C52.3343 38.0979 54.5661 33.974 54.479 30.5016C54.3911 27.0033 52.2279 24.0591 47.2452 23.5665L47.56 20.3924C53.8191 21.0114 57.5397 25.4876 57.6637 30.4213C57.7357 33.296 56.6814 36.2873 54.5589 38.8337C57.3025 38.5264 60.029 38.5785 62.6725 39.1114C62.1344 38.0066 61.8736 36.8106 61.91 35.6225C62.0255 31.8609 65.2251 28.3517 70.2532 28.2983C70.5883 28.2945 70.9315 28.3073 71.2825 28.3355L71.0265 31.5149C66.7713 31.1738 65.1713 33.4073 65.0999 35.7238C65.0296 38.0146 66.5586 40.5789 70.9414 40.9193C75.7724 40.962 79.2357 38.342 80.9328 34.4486C83.2049 29.2359 82.1272 21.4209 74.9848 14.2733C74.8496 14.138 74.7154 14.0014 74.5793 13.8679C74.5035 14.5152 74.3363 15.1385 74.0942 15.719C72.8566 18.6876 69.9575 20.6913 66.9459 21.2511C62.7918 22.023 59.3854 20.3383 57.8132 17.7677C56.241 15.1973 56.6538 11.5625 59.4827 9.64893L61.27 12.2949C59.7485 13.3239 59.6859 14.7172 60.5337 16.1033C61.3816 17.4897 63.294 18.6905 66.3643 18.12C68.2943 17.7612 70.4435 16.1859 71.1492 14.4925C71.5026 13.6458 71.5708 12.809 71.2188 11.8517C70.9329 11.0741 70.3334 10.1849 69.2182 9.24846L69.1863 9.222C64.5233 5.7077 59.5691 3.18024 54.5483 1.51348C54.5514 1.51894 54.556 1.52372 54.5591 1.52935C55.7001 3.61537 55.7847 5.98168 55.0819 8.07486C53.6765 12.2614 49.266 15.5599 43.81 15.3776C42.6239 15.3384 41.4952 15.9102 40.5348 17.0261C39.5743 18.142 38.873 19.7767 38.7103 21.5179C38.3851 25.0002 39.8921 28.8387 45.7679 30.7359L44.7854 33.7714C37.7723 31.5072 35.0842 25.9965 35.5297 21.2246C35.7529 18.839 36.6745 16.6221 38.1171 14.9461C39.5599 13.2701 41.6123 12.1119 43.916 12.1882C48.0197 12.3251 51.1407 9.78396 52.0564 7.05626C52.5142 5.69267 52.455 4.33574 51.7576 3.06092C51.0803 1.82296 49.7382 0.598839 47.3354 -0.294459C44.4139 -0.800941 41.5041 -1.03993 38.6507 -1.03088ZM55.929 41.9762C48.7739 42.5583 41.0152 45.9707 34.5431 49.9245C24.987 55.7623 14.9308 54.488 7.79567 49.1939C10.6027 59.2389 20.5494 61.2778 30.9262 58.7372C31.9646 58.3471 32.9849 57.6211 33.855 56.6836C35.0596 55.385 35.9324 53.7014 36.2073 52.3093L39.3387 52.9281C38.9213 55.0419 37.789 57.1387 36.1967 58.855C34.6689 60.5014 32.6785 61.8167 30.3767 62.1622C29.2217 64.7347 28.2712 67.2287 27.8854 68.9743C27.2794 71.7159 30.3104 72.7682 31.6676 70.0037C34.9147 63.3901 39.4978 57.503 45.2225 52.4267C49.6718 49.4986 53.4857 45.8882 55.9291 41.9762H55.929Z" fill="#7182BE" fill-opacity="0.3"/>
</svg>
