<svg width="40" height="38" viewBox="0 0 40 38" fill="none" xmlns="http://www.w3.org/2000/svg">
<path d="M9.92797 0.0371857L0.468999 6.81989L8.69983 9.32024L18.2651 1.83594L9.92797 0.0372716V0.0371857ZM19.6377 2.7083L9.49304 10.4392L13.8819 21.7058L14.6153 21.0651L14.9788 19.7152C14.7327 19.5549 14.5217 19.2942 14.3801 18.9752C14.2385 18.6563 14.1745 18.2978 14.1985 17.9578C14.222 17.6277 14.3271 17.3337 14.4978 17.1206C14.6685 16.9076 14.8953 16.7873 15.1435 16.7782C15.2461 16.7744 15.3508 16.7897 15.4546 16.8237C15.5458 16.8541 15.6356 16.8986 15.7221 16.9564L16.4045 14.423C16.4128 14.3926 16.4229 14.3627 16.4348 14.3336C16.4364 14.3299 16.4381 14.3262 16.4398 14.3226C16.4481 14.3026 16.4573 14.2829 16.4673 14.2637C16.4698 14.2593 16.4724 14.2549 16.475 14.2506C16.4849 14.2322 16.4955 14.2143 16.5068 14.1968C16.5211 14.1754 16.5364 14.1547 16.5527 14.1347C16.5546 14.1326 16.5565 14.1305 16.5584 14.1284C16.5731 14.1107 16.5886 14.0936 16.6048 14.0773C16.6226 14.0594 16.6412 14.0424 16.6607 14.0264C16.6608 14.0263 16.6609 14.0262 16.661 14.0262C16.6739 14.016 16.687 14.0062 16.7005 13.9968C16.708 13.991 16.7157 13.9854 16.7234 13.9799C16.7375 13.9708 16.7519 13.9622 16.7665 13.9541C16.7742 13.9494 16.7819 13.9449 16.7897 13.9406C16.8022 13.9343 16.8148 13.9283 16.8275 13.9227C16.8383 13.9174 16.8492 13.9123 16.8602 13.9074C16.8726 13.9027 16.8851 13.8984 16.8978 13.8944C16.9094 13.89 16.9212 13.8859 16.933 13.8821C16.9445 13.8789 16.9561 13.8761 16.9677 13.8735C16.9811 13.8698 16.9946 13.8666 17.0081 13.8637C17.0226 13.8612 17.0373 13.8592 17.0519 13.8577C17.0625 13.856 17.0731 13.8546 17.0837 13.8534C17.084 13.8534 17.0843 13.8534 17.0846 13.8534C17.0849 13.8533 17.0852 13.8532 17.0854 13.8531L19.975 13.6062C20.0412 13.3594 20.1584 13.1514 20.3144 13.0036C20.4705 12.8559 20.6597 12.7738 20.8624 12.766C20.9651 12.7622 21.0698 12.7775 21.1737 12.8115C21.4538 12.9041 21.7144 13.128 21.9065 13.4412L23.0273 13.3456L19.6378 2.70795L19.6377 2.7083ZM9.79494 3.36194C10.1586 3.3695 10.4667 3.44837 10.6672 3.58517C10.8676 3.72197 10.948 3.90828 10.8948 4.11251C10.8336 4.34725 10.6006 4.58776 10.247 4.78112C9.89348 4.97449 9.44831 5.10487 9.00947 5.14359C8.79215 5.16276 8.58294 5.15885 8.39376 5.13208C8.20459 5.1053 8.03916 5.05619 7.90693 4.98754C7.77469 4.9189 7.67825 4.83206 7.62309 4.732C7.56794 4.63194 7.55516 4.5206 7.58548 4.40436C7.61573 4.28812 7.68849 4.16923 7.79961 4.0545C7.91073 3.93976 8.05803 3.83142 8.2331 3.73565C8.40817 3.63989 8.60758 3.55859 8.81995 3.49638C9.03231 3.43417 9.25346 3.39229 9.47078 3.37311C9.58114 3.36343 9.68968 3.35969 9.79476 3.36194H9.79494ZM18.4083 5.38293C18.4083 5.38293 18.4084 5.38293 18.4085 5.38293C18.5111 5.37917 18.6157 5.39449 18.7195 5.42847C19.0241 5.52813 19.3049 5.78276 19.5001 6.13635C19.6953 6.48994 19.7889 6.91353 19.7604 7.31394C19.7463 7.51222 19.7026 7.69884 19.6318 7.86314C19.561 8.02744 19.4646 8.1662 19.3479 8.27151C19.2313 8.37682 19.0967 8.4466 18.952 8.47688C18.8072 8.50716 18.6551 8.49733 18.5043 8.44798C18.3534 8.39866 18.2069 8.31077 18.0729 8.18932C17.939 8.06787 17.8203 7.91525 17.7236 7.74017C17.6269 7.56509 17.5542 7.37097 17.5095 7.16891C17.4648 6.96684 17.4491 6.76079 17.4632 6.56251C17.4867 6.23242 17.5919 5.93835 17.7626 5.72531C17.9333 5.51227 18.1601 5.39201 18.4084 5.38293H18.4083ZM0.0814209 8.31881L4.1198 18.1263L12.2182 21.5965L8.26611 10.8053L0.0814209 8.31873V8.31881ZM12.7904 9.8167C12.8931 9.81287 12.9978 9.82813 13.1016 9.86208C13.4062 9.96178 13.6869 10.2164 13.8821 10.57C14.0773 10.9236 14.1709 11.3472 14.1423 11.7475C14.1282 11.9458 14.0845 12.1324 14.0138 12.2967C13.943 12.461 13.8465 12.5998 13.7299 12.7051C13.6133 12.8104 13.4787 12.8802 13.334 12.9105C13.1892 12.9408 13.0371 12.931 12.8863 12.8817C12.5817 12.782 12.3009 12.5274 12.1057 12.1738C11.9105 11.8202 11.8169 11.3966 11.8454 10.9962C11.8689 10.6661 11.9741 10.3721 12.1447 10.1591C12.3154 9.94604 12.5422 9.82575 12.7904 9.81662V9.8167ZM6.33449 10.9353C6.5475 10.9237 6.81454 11.0498 7.08378 11.2893C7.35302 11.5287 7.60526 11.8643 7.79156 12.231C7.89025 12.4253 7.96759 12.6226 8.01916 12.8119C8.07074 13.0012 8.09554 13.1786 8.09215 13.3341C8.08875 13.4896 8.05724 13.6201 7.9994 13.7181C7.94156 13.8162 7.85852 13.8799 7.75504 13.9055C7.54601 13.9573 7.26639 13.8511 6.9777 13.6103C6.68901 13.3696 6.41489 13.0139 6.21564 12.6217C6.01646 12.2296 5.9084 11.833 5.91524 11.519C5.92207 11.2051 6.04323 10.9996 6.25208 10.9476C6.27837 10.941 6.3059 10.9369 6.33458 10.9353H6.33449ZM28.9698 14.3908L19.3361 15.2138L29.1125 22.0825L38.8748 20.6253L28.9698 14.3906V14.3908ZM4.08611 15.2206C4.29911 15.2089 4.56618 15.3351 4.83546 15.5745C5.10474 15.814 5.35703 16.1496 5.54335 16.5164C5.74264 16.9086 5.85075 17.3054 5.8439 17.6194C5.83705 17.9334 5.7158 18.1389 5.50683 18.1908C5.29781 18.2426 5.0182 18.1364 4.72951 17.8956C4.44082 17.6549 4.16669 17.2993 3.96743 16.9071C3.76819 16.5149 3.66011 16.1182 3.66696 15.8042C3.67381 15.4902 3.79503 15.2847 4.00395 15.2328C4.03025 15.2263 4.05778 15.2223 4.08645 15.2208L4.08611 15.2206ZM17.6108 15.8921L14.0411 29.1426L23.9769 37.6894L28.0286 23.2115L17.6108 15.8922V15.8921ZM28.5237 16.8518C28.7904 16.8567 29.0839 16.8968 29.3788 16.9684C29.6737 17.04 29.9611 17.1411 30.2161 17.2628C30.422 17.3612 30.6023 17.4709 30.7466 17.5856C30.8909 17.7003 30.9964 17.8179 31.0571 17.9316C31.1178 18.0452 31.1325 18.1528 31.1004 18.2481C31.0682 18.3434 30.9899 18.4245 30.8698 18.4869C30.7498 18.5494 30.5903 18.5918 30.4006 18.6118C30.2109 18.6319 29.9946 18.6291 29.7641 18.6037C29.5336 18.5784 29.2934 18.5308 29.0572 18.4639C28.8209 18.3969 28.5934 18.3118 28.3874 18.2135C27.9715 18.0149 27.669 17.7744 27.5463 17.5448C27.4237 17.3152 27.491 17.1154 27.7334 16.9894C27.9177 16.8936 28.1931 16.8457 28.5236 16.8519L28.5237 16.8518ZM39.9186 22.0336L29.5305 23.5841L25.5066 37.9629L35.5009 35.2326L39.9186 22.0336ZM24.2945 22.9617C24.4158 22.9618 24.5384 22.9891 24.6587 23.0427C24.8335 23.1207 25.0008 23.2531 25.151 23.4323C25.3012 23.6115 25.4314 23.834 25.5341 24.0872C25.6368 24.3403 25.7101 24.6191 25.7497 24.9076C25.7893 25.1961 25.7945 25.4887 25.765 25.7687C25.7053 26.334 25.5079 26.8137 25.2161 27.102C24.9243 27.3904 24.5621 27.4639 24.2091 27.3064C24.0343 27.2284 23.867 27.096 23.7168 26.9168C23.5665 26.7376 23.4364 26.5151 23.3336 26.262C23.2309 26.0088 23.1576 25.73 23.118 25.4415C23.0784 25.153 23.0732 24.8604 23.1027 24.5804C23.1519 24.1144 23.2951 23.7039 23.5103 23.4115C23.7255 23.1192 24.001 22.9612 24.2945 22.9617ZM37.5363 23.9617C37.8167 23.9534 38.049 24.0785 38.1956 24.3166C38.3679 24.5964 38.4087 25.0111 38.3092 25.4694C38.2096 25.9276 37.9779 26.392 37.6649 26.7602C37.3519 27.1284 36.9834 27.3704 36.6403 27.4329C36.2972 27.4954 36.0078 27.3733 35.8355 27.0935C35.6633 26.8137 35.6225 26.399 35.722 25.9408C35.8215 25.4825 36.0533 25.0182 36.3662 24.6499C36.544 24.4408 36.7416 24.2703 36.9442 24.1511C37.1468 24.032 37.3492 23.9672 37.5363 23.9618L37.5363 23.9617ZM31.6327 24.8781C31.9131 24.8698 32.1454 24.9949 32.292 25.233C32.4642 25.5129 32.505 25.9275 32.4055 26.3858C32.306 26.8441 32.0742 27.3084 31.7612 27.6767C31.4483 28.0449 31.0797 28.2868 30.7366 28.3493C30.3936 28.4118 30.1041 28.2897 29.9319 28.0098C29.7597 27.73 29.7189 27.3153 29.8185 26.8571C29.918 26.3988 30.1498 25.9345 30.4627 25.5663C30.6405 25.3572 30.8381 25.1867 31.0407 25.0675C31.2433 24.9483 31.4457 24.8836 31.6328 24.8781H31.6327ZM16.6799 26.0215C16.8013 26.0217 16.9239 26.049 17.0443 26.1027C17.2191 26.1807 17.3863 26.3131 17.5365 26.4923C17.6867 26.6715 17.8169 26.8941 17.9196 27.1472C18.0223 27.4003 18.0956 27.6791 18.1352 27.9676C18.1748 28.2561 18.18 28.5487 18.1505 28.8287C18.1209 29.1086 18.0573 29.3705 17.9631 29.5993C17.8689 29.8281 17.7461 30.0193 17.6016 30.1621C17.4571 30.3049 17.2938 30.3965 17.121 30.4315C16.9482 30.4666 16.7693 30.4444 16.5945 30.3664C16.4197 30.2884 16.2524 30.156 16.1022 29.9768C15.952 29.7976 15.8218 29.5751 15.7191 29.322C15.6164 29.0689 15.5431 28.7901 15.5035 28.5016C15.4639 28.213 15.4587 27.9205 15.4882 27.6405C15.5374 27.1745 15.6805 26.7639 15.8957 26.4715C16.1109 26.179 16.3863 26.021 16.6798 26.0214L16.6799 26.0215ZM34.9225 31.2525C35.2028 31.2443 35.4351 31.3694 35.5817 31.6074C35.7539 31.8873 35.7948 32.3019 35.6953 32.7601C35.5958 33.2184 35.3641 33.6827 35.0511 34.051C34.7381 34.4192 34.3695 34.6611 34.0265 34.7236C33.6834 34.7861 33.3939 34.6639 33.2218 34.3841C33.0495 34.1043 33.0087 33.6896 33.1082 33.2314C33.2077 32.7731 33.4395 32.3088 33.7524 31.9405C33.9302 31.7314 34.1278 31.5609 34.3304 31.4417C34.533 31.3226 34.7354 31.2578 34.9225 31.2523V31.2525ZM28.8784 32.9273C29.1587 32.9191 29.391 33.0442 29.5375 33.2824C29.7098 33.5622 29.7506 33.9768 29.6511 34.4351C29.5516 34.8933 29.3199 35.3576 29.007 35.7259C28.852 35.9082 28.6817 36.0615 28.5059 36.1769C28.3301 36.2923 28.1522 36.3676 27.9823 36.3985C27.8124 36.4294 27.6539 36.4153 27.5159 36.357C27.3778 36.2988 27.2628 36.1974 27.1776 36.0588C27.0054 35.779 26.9646 35.3643 27.0641 34.9061C27.1637 34.4478 27.3954 33.9835 27.7083 33.6153C27.8861 33.4062 28.0837 33.2357 28.2863 33.1165C28.4889 32.9974 28.6914 32.9326 28.8785 32.9272L28.8784 32.9273Z" fill="#7182BE" fill-opacity="0.6"/>
</svg>
