<svg width="21" height="21" viewBox="0 0 21 21" fill="none" xmlns="http://www.w3.org/2000/svg">
<path d="M15.3185 0.000101194C13.5422 0.00411702 11.7238 0.917893 10.4999 2.87286C8.95057 0.617579 6.43647 -0.258178 4.24932 0.189674C1.87857 0.675066 -0.0970596 2.76268 0.00369084 6.06885C0.0982124 9.16706 1.87792 11.3443 3.97839 13.4252C6.07899 15.5062 8.52021 17.5371 10.1624 20.3875L10.5149 21L10.8675 20.3876C12.5031 17.5485 15.0231 15.6133 17.1671 13.5753C19.311 11.5373 21.0946 9.33245 20.9961 6.04436C20.9031 2.93916 18.9679 0.774196 16.6512 0.170512C16.2168 0.0573267 15.7691 -0.00103375 15.3186 1.38583e-05L15.3185 0.000101194ZM15.3159 0.809029C15.6972 0.811648 16.0765 0.862849 16.4457 0.959055C18.4144 1.47208 20.1002 3.28758 20.1835 6.06889C20.273 9.05557 18.7052 10.9895 16.6076 12.9834C14.6478 14.8463 12.2398 16.7066 10.5162 19.4C8.80587 16.7002 6.47907 14.7551 4.55153 12.8456C2.48848 10.8018 0.903083 8.84374 0.817709 6.04431C0.726933 3.063 2.38999 1.4032 4.41271 0.989042C6.43543 0.574932 8.82682 1.45697 10.1597 3.86315L10.53 4.53428L10.8784 3.85093C11.9706 1.70211 13.6633 0.79733 15.3159 0.808985V0.809029ZM14.7754 1.72154C14.7026 1.72053 14.6332 1.72298 14.5672 1.72835C14.3029 1.74974 14.0995 1.81936 13.9668 1.90976C13.8342 2.00011 13.7631 2.10112 13.7273 2.25896C13.6557 2.57468 13.8203 3.10634 14.2582 3.65708C14.6959 4.20795 15.3764 4.76344 16.172 5.1604C16.9676 5.55727 17.7234 5.71331 18.2519 5.67049C18.5161 5.64911 18.7182 5.57948 18.8508 5.48908C18.9834 5.39873 19.056 5.29772 19.0917 5.13988C19.1633 4.8242 18.9973 4.29394 18.5595 3.74307C18.1217 3.1922 17.4426 2.63675 16.647 2.23989C15.951 1.89256 15.285 1.72839 14.7755 1.72149L14.7754 1.72154ZM5.62812 1.72285C5.57084 1.72211 5.51639 1.72416 5.46477 1.72835C5.25848 1.74493 5.10498 1.79793 5.01015 1.86205C4.91537 1.92613 4.87042 1.99012 4.8455 2.09938C4.7955 2.31789 4.91476 2.72838 5.26336 3.16335C5.61183 3.59828 6.15848 4.04212 6.7974 4.35828C7.43627 4.67444 8.04142 4.79653 8.45392 4.76335C8.6603 4.74685 8.81384 4.69247 8.90867 4.62834C9.00341 4.56426 9.04836 4.50027 9.07332 4.39102C9.12328 4.1725 9.00397 3.76202 8.65542 3.32704C8.30695 2.89211 7.7603 2.44967 7.12138 2.13347C6.56235 1.8569 6.02911 1.72839 5.6282 1.72293L5.62812 1.72285ZM10.6074 7.39739C8.23478 7.39739 6.0857 7.59198 4.55549 7.89937C3.79043 8.05315 3.17835 8.23809 2.79138 8.42186C2.59798 8.51374 2.46273 8.60794 2.39665 8.67285C2.36486 8.70406 2.35205 8.72239 2.3463 8.73151C2.35196 8.7409 2.36477 8.76024 2.39661 8.79153C2.46269 8.8564 2.59785 8.94924 2.79138 9.04113C3.17831 9.22498 3.79039 9.40988 4.55549 9.56362C6.0857 9.87105 8.23469 10.0669 10.6074 10.0669C12.98 10.0669 15.1291 9.87105 16.6593 9.56362C17.4243 9.40988 18.0364 9.22498 18.4234 9.04113C18.6168 8.94929 18.752 8.85649 18.8181 8.79153C18.8499 8.76028 18.8627 8.7409 18.8685 8.73151C18.8628 8.72244 18.8499 8.7041 18.8181 8.67289C18.7521 8.60798 18.6169 8.51379 18.4234 8.4219C18.0364 8.23814 17.4244 8.05319 16.6593 7.89941C15.1291 7.59202 12.9801 7.39743 10.6074 7.39743V7.39739ZM18.8685 8.73165C18.8748 8.74147 18.8727 8.74051 18.8727 8.73165C18.8727 8.72274 18.8748 8.72152 18.8686 8.73165H18.8685ZM2.34643 8.73165C2.3402 8.72152 2.34229 8.72274 2.34229 8.73165C2.34229 8.74051 2.34012 8.74147 2.34639 8.73165H2.34643ZM18.2274 9.9975C17.8267 10.1354 17.3562 10.2564 16.8186 10.3644C15.2101 10.6876 13.0242 10.8828 10.6074 10.8828C8.1907 10.8828 6.00333 10.6875 4.39494 10.3644C3.89458 10.2639 3.45133 10.1522 3.06911 10.0261C4.97683 12.5294 8.27224 14.6618 10.504 18.0987C11.7661 16.1824 13.4102 14.7236 14.9374 13.3681C16.2092 12.2394 17.39 11.1771 18.2274 9.99742V9.9975Z" fill="#7182BE" fill-opacity="0.6"/>
</svg>
