<svg width="19" height="20" viewBox="0 0 19 20" fill="none" xmlns="http://www.w3.org/2000/svg">
<path d="M17.9605 4.25181e-05L13.7852 1.26833L15.4777 0.0731714C14.4086 0.325102 13.0605 0.817733 11.3661 1.61258L8.60221 4.62367L9.58216 2.52063C8.63552 3.07188 7.62959 3.79645 6.65783 4.64107L6.01525 7.377L5.87778 5.35364C4.9188 6.27032 4.01993 7.29353 3.27673 8.36609C2.49285 9.49727 1.88082 10.6849 1.57407 11.8731L0.428913 11.0727C0.678858 11.9071 0.913166 12.7417 1.36167 13.5761C1.36297 13.6386 1.36574 13.7013 1.36928 13.7635L0 13.3236C0.457174 14.1014 0.960077 14.8506 1.751 15.4135C1.76932 15.4561 1.78981 15.4974 1.80956 15.5397C1.3275 16.9576 0.972008 18.3902 0.72923 19.8658L1.4787 20C1.68035 18.7745 1.96067 17.5819 2.32997 16.4026C2.3316 16.4048 2.33339 16.407 2.33506 16.4092C4.13806 9.76808 8.15053 5.05721 14.0232 2.62579L14.3032 3.36491C9.04822 5.54061 5.37296 9.53981 3.48037 15.2366C4.21767 15.241 4.93802 15.1478 5.60674 14.972L5.80525 12.3784L6.33841 14.7394C6.77983 14.5726 7.18866 14.3667 7.55238 14.1279L6.70995 12.2786L8.04486 13.7596C8.36835 13.4844 8.63992 13.1777 8.84397 12.8437C10.0781 10.8226 11.3766 8.81379 13.9239 7.13511L12.0621 6.44381L14.919 6.53416C15.0022 6.48801 15.0854 6.44142 15.1711 6.3959C15.5411 6.19894 15.9006 5.96275 16.2424 5.69929L14.218 5.53044L17.2606 4.78065C17.4963 4.53348 17.7156 4.27712 17.9135 4.01617C18.6213 3.08281 19.0957 2.111 18.9836 1.22715C18.9276 0.785146 18.6759 0.369771 18.2659 0.136984C18.1709 0.0829559 18.0692 0.0375642 17.9605 0L17.9605 4.25181e-05ZM3.11894 16.4211C3.08269 16.5512 3.04653 16.6815 3.01204 16.8133L3.11894 16.4211Z" fill="#7182BE" fill-opacity="0.6"/>
</svg>
