<svg width="20" height="19" viewBox="0 0 20 19" fill="none" xmlns="http://www.w3.org/2000/svg">
<path d="M9.39148 0.407165C9.29498 0.407499 9.19889 0.408502 9.10293 0.411092C9.02753 0.413181 8.95213 0.41552 8.8771 0.418946C8.50889 0.484408 8.33886 0.645618 8.24654 0.83014C8.14482 1.03359 8.14879 1.30734 8.26221 1.55076C8.37571 1.79431 8.58388 1.99341 8.87451 2.06777C9.16518 2.14213 9.5653 2.1037 10.0912 1.76754L10.5116 2.4255C9.8508 2.84784 9.21138 2.95926 8.6813 2.82361C8.15125 2.68797 7.75794 2.31717 7.5547 1.88104C7.3632 1.47014 7.32803 0.98805 7.51167 0.559937C5.7188 0.849858 4.09542 1.5374 2.84847 2.50508C2.43865 2.95157 2.39855 3.4705 2.57818 3.82493C2.77996 4.22288 3.25536 4.51338 4.20616 4.2126L4.44244 4.95674C3.24851 5.33439 2.26441 4.93218 1.88246 4.17868C1.7893 3.99499 1.7324 3.79618 1.71005 3.59119C1.50894 3.82981 1.32739 4.07821 1.16697 4.33663L1.17223 4.33914C0.812382 5.1586 0.804194 5.7262 0.94765 6.09504C1.09119 6.46391 1.39193 6.69827 1.85501 6.82744C2.78108 7.08561 4.28069 6.77409 5.33669 5.98542C5.78869 5.64787 6.21718 4.8292 6.25449 4.1943C6.27308 3.87681 6.20582 3.62599 6.07297 3.46583C5.94013 3.30566 5.72741 3.18581 5.28706 3.19036L5.27924 2.40975C5.88444 2.40348 6.37584 2.60835 6.67349 2.9672C6.9711 3.32605 7.06033 3.78816 7.03381 4.24C6.98075 5.14373 6.50765 6.0853 5.80403 6.61075C4.55595 7.54292 2.9075 7.9311 1.64613 7.57944C1.06178 7.41651 0.544519 7.06201 0.277993 6.51291C-0.120794 8.41143 0.458587 10.1749 1.56125 11.3954C1.70537 11.5549 1.85877 11.7057 2.01952 11.8457C1.90447 11.5162 1.85175 11.1731 1.86412 10.8392C1.88626 10.2408 2.11819 9.65504 2.58349 9.25049C2.96506 8.91854 3.49218 8.72704 4.12261 8.7283C4.16464 8.7283 4.20758 8.72905 4.25053 8.7308C4.3487 8.73498 4.4495 8.7435 4.55215 8.75696L4.45021 9.53114C3.79902 9.44558 3.37638 9.59472 3.09519 9.83923C2.81404 10.0838 2.65893 10.4497 2.64348 10.8679C2.61256 11.7045 3.1477 12.6812 4.30154 12.9646L4.3002 12.9724C5.43615 13.1892 6.70378 12.988 7.97642 12.2113C7.97717 12.2108 7.97822 12.2106 7.97901 12.21C8.24387 12.0241 8.38653 11.8421 8.45684 11.6852C8.53976 11.5 8.53801 11.3388 8.47898 11.1656C8.36101 10.8193 7.93841 10.4633 7.55082 10.364C6.9241 10.2036 6.52598 10.424 6.33933 10.6866C6.15268 10.9489 6.14132 11.2067 6.4294 11.4306L5.95024 12.0468C5.35757 11.5859 5.31977 10.7732 5.70356 10.2335C5.99147 9.82878 6.49666 9.55148 7.1057 9.53377C7.13106 9.53301 7.157 9.53226 7.18273 9.53251C7.36262 9.53377 7.54994 9.5585 7.74407 9.60813C8.39179 9.77397 8.99064 10.2463 9.2179 10.9136C9.27705 11.0872 9.30521 11.2766 9.29627 11.4698C9.99433 11.1131 10.7305 10.7964 11.4804 10.5585C12.7401 9.98285 13.2863 8.97364 13.265 8.12385C13.2435 7.26775 12.7141 6.54725 11.4947 6.42669L11.5718 5.64992C13.1035 5.8014 14.014 6.89683 14.0444 8.10422C14.062 8.80771 13.804 9.53974 13.2846 10.1629C13.956 10.0877 14.6232 10.1004 15.2701 10.2309C15.1385 9.9605 15.0746 9.66782 15.0835 9.37707C15.1118 8.45651 15.8948 7.59773 17.1253 7.58466C17.2073 7.58374 17.2913 7.58687 17.3772 7.59376L17.3145 8.37183C16.2732 8.28836 15.8816 8.83495 15.8642 9.40184C15.847 9.96247 16.2211 10.59 17.2937 10.6733C18.476 10.6838 19.3235 10.0426 19.7388 9.08978C20.2949 7.81413 20.0311 5.90162 18.2832 4.15244C18.2501 4.11932 18.2173 4.0859 18.184 4.05323C18.1655 4.21164 18.1245 4.36416 18.0653 4.50624C17.7624 5.23271 17.0529 5.72307 16.3159 5.86005C15.2993 6.04896 14.4657 5.63668 14.081 5.00758C13.6962 4.37857 13.7972 3.48905 14.4895 3.02075L14.9269 3.66827C14.5546 3.92009 14.5392 4.26106 14.7467 4.60027C14.9542 4.93957 15.4222 5.23342 16.1736 5.09381C16.6459 5.006 17.1719 4.62049 17.3446 4.20608C17.431 3.99888 17.4478 3.7941 17.3616 3.55982C17.2916 3.36953 17.1449 3.15193 16.872 2.92275L16.8642 2.91627C15.7231 2.05624 14.5107 1.43772 13.282 1.02983C13.2827 1.03116 13.2838 1.03233 13.2846 1.03371C13.5638 1.5442 13.5845 2.12329 13.4126 2.63554C13.0686 3.66008 11.9893 4.4673 10.654 4.42269C10.3638 4.41308 10.0876 4.55303 9.85255 4.82611C9.61748 5.0992 9.44587 5.49924 9.40606 5.92534C9.32647 6.77756 9.69527 7.71692 11.1332 8.18121L10.8928 8.92406C9.1765 8.36995 8.51867 7.02136 8.6277 5.85357C8.6823 5.26976 8.90784 4.72723 9.26089 4.31708C9.61397 3.90693 10.1162 3.62348 10.68 3.64216C11.6843 3.67566 12.448 3.0538 12.6721 2.38627C12.7842 2.05257 12.7697 1.7205 12.599 1.40852C12.4333 1.10556 12.1048 0.805994 11.5168 0.587384C10.8019 0.463436 10.0897 0.404951 9.39148 0.407165ZM13.6198 10.9319C11.8688 11.0744 9.97011 11.9095 8.38624 12.8771C6.04766 14.3057 3.58668 13.9939 1.84055 12.6983C2.52751 15.1565 4.96167 15.6555 7.5011 15.0337C7.75522 14.9383 8.00491 14.7606 8.21784 14.5312C8.51265 14.2134 8.72625 13.8014 8.7935 13.4607L9.55983 13.6121C9.45769 14.1294 9.18059 14.6425 8.79091 15.0626C8.41703 15.4655 7.92993 15.7874 7.36663 15.8719C7.08398 16.5015 6.85137 17.1118 6.75696 17.539C6.60866 18.2099 7.35042 18.4675 7.68253 17.7909C8.47718 16.1724 9.59877 14.7317 10.9997 13.4894C12.0886 12.7729 13.0219 11.8893 13.6199 10.9319H13.6198Z" fill="#7182BE" fill-opacity="0.6"/>
</svg>
