<svg width="16" height="20" viewBox="0 0 16 20" fill="none" xmlns="http://www.w3.org/2000/svg">
<path d="M11.2893 9.14046L14.0897 5.6401L16 7.01807L13.1996 10.5201L11.2893 9.14046ZM10.7161 8.73714L13.6939 5.01291L11.6882 3.56765L8.71046 7.29189L10.7161 8.73714ZM9.49134 4.59901L8.63112 6.27365L11.1717 3.09958L9.27695 1.73262L7.66171 3.75175L9.49134 4.59901ZM8.56694 1.49943L6.48816 0L4.61619 2.34077L7.0083 3.4483L8.56694 1.49943ZM13.336 11.4668L7.14068 7.12006L6.69854 7.15858L6.90178 7.24322L9.67229 13.1017L8.93598 13.1969L6.36515 7.75869L4.58232 7.00961L4.40403 5.70443L6.16057 6.5263L7.78116 6.38537L8.53886 4.91134L3.59597 2.6222L0 7.38372L4.50566 13.8372L3.4939 20H11.7885V14.9355L13.3614 12.8647L13.8388 10.8367L13.336 11.4668Z" fill="#7182BE" fill-opacity="0.6"/>
</svg>
